<svg xmlns="http://www.w3.org/2000/svg" viewBox="0 0 24 24" fill="none">
  <defs>
    <filter id="settingShadow" x="-20%" y="-20%" width="140%" height="140%">
      <feDropShadow dx="0" dy="1" stdDeviation="1" flood-color="#000000" flood-opacity="0.2"/>
    </filter>
  </defs>
  
  <!-- Main gear outline -->
  <path d="M12 15.5A3.5 3.5 0 0 1 8.5 12A3.5 3.5 0 0 1 12 8.5a3.5 3.5 0 0 1 3.5 3.5a3.5 3.5 0 0 1-3.5 3.5m7.43-2.53c.04-.32.07-.64.07-.97c0-.33-.03-.66-.07-1l1.86-1.41c.2-.15.25-.42.13-.64l-1.86-3.23c-.12-.22-.39-.3-.61-.22l-2.17.87c-.5-.38-1.03-.7-1.62-.94L14.4 2.81c-.04-.24-.24-.41-.48-.41h-3.84c-.24 0-.43.17-.47.41L9.25 5.35C8.66 5.59 8.12 5.92 7.63 6.29L5.46 5.42c-.22-.08-.49 0-.61.22L2.99 8.87c-.12.22-.07.49.13.64L4.98 11c-.04.32-.07.65-.07.97c0 .32.03.65.07.97l-1.86 1.41c-.2.15-.25.42-.13.64l1.86 3.23c.12.22.39.3.61.22l2.17-.87c.5.38 1.03.7 1.62.94l.36 2.54c.05.24.24.41.48.41h3.84c.24 0 .44-.17.47-.41l.36-2.54c.59-.24 1.13-.56 1.62-.94l2.17.87c.22.08.49 0 .61-.22l1.86-3.23c.12-.22.07-.49-.13-.64L19.43 13Z" 
        fill="none" 
        stroke="currentColor" 
        stroke-width="1.5"
        filter="url(#settingShadow)"/>
  
  <!-- Center circle -->
  <circle cx="12" cy="12" r="3" fill="none" stroke="currentColor" stroke-width="1.5" opacity="0.9"/>
</svg>
